<svg xmlns="http://www.w3.org/2000/svg" width="320" height="320" viewBox="0 0 320 320">

  <!-- rose sprig 1, top-left -->
  <g transform="translate(30,35) rotate(-15)">
    <path d="M0 0 L4 22" stroke="#7FA184" stroke-width="1.3" fill="none" stroke-linecap="round"/>
    <path d="M2 10 Q10 6 12 14 Q6 14 2 10 Z" fill="#7FA184" opacity="0.75"/>
    <path d="M2 16 Q-6 14 -6 22 Q0 20 2 16 Z" fill="#8BAA91" opacity="0.7"/>
    <circle cx="0" cy="-2" r="3.4" fill="#D89AA5" opacity="0.75"/>
    <circle cx="3.2" cy="-1" r="3" fill="#E3B8C0" opacity="0.7"/>
    <circle cx="-3.2" cy="-1" r="3" fill="#E3B8C0" opacity="0.7"/>
    <circle cx="0" cy="-4.5" r="3" fill="#E9C7CE" opacity="0.7"/>
    <circle cx="0" cy="-1.5" r="1.6" fill="#C97F8C" opacity="0.85"/>
  </g>

  <!-- standalone leaf sprig, near top-left rose -->
  <g transform="translate(75,60) rotate(25)">
    <path d="M0 0 L0 18" stroke="#7FA184" stroke-width="1.2" fill="none" stroke-linecap="round"/>
    <path d="M0 6 Q9 2 10 10 Q3 10 0 6 Z" fill="#7FA184" opacity="0.6"/>
    <path d="M0 12 Q-9 9 -9 17 Q-2 16 0 12 Z" fill="#8BAA91" opacity="0.55"/>
  </g>

  <!-- rose sprig 2, upper right -->
  <g transform="translate(230,50) rotate(10)">
    <path d="M0 0 L-3 20" stroke="#7FA184" stroke-width="1.3" fill="none" stroke-linecap="round"/>
    <path d="M-2 9 Q-11 6 -12 14 Q-6 13 -2 9 Z" fill="#8BAA91" opacity="0.7"/>
    <circle cx="0" cy="-2" r="3.4" fill="#D89AA5" opacity="0.75"/>
    <circle cx="3.2" cy="-1" r="3" fill="#E3B8C0" opacity="0.7"/>
    <circle cx="-3.2" cy="-1" r="3" fill="#E3B8C0" opacity="0.7"/>
    <circle cx="0" cy="-4.5" r="3" fill="#E9C7CE" opacity="0.7"/>
    <circle cx="0" cy="-1.5" r="1.6" fill="#C97F8C" opacity="0.85"/>
  </g>

  <!-- leaf cluster, right side middle -->
  <g transform="translate(275,120) rotate(-20)">
    <path d="M0 0 L2 20" stroke="#7FA184" stroke-width="1.2" fill="none" stroke-linecap="round"/>
    <path d="M1 6 Q10 3 11 11 Q4 10 1 6 Z" fill="#7FA184" opacity="0.6"/>
    <path d="M1 12 Q-8 10 -8 18 Q-1 17 1 12 Z" fill="#8BAA91" opacity="0.55"/>
  </g>

  <!-- leaf sprig, center-left -->
  <g transform="translate(60,150) rotate(8)">
    <path d="M0 0 L3 18" stroke="#7FA184" stroke-width="1.2" fill="none" stroke-linecap="round"/>
    <path d="M1 5 Q9 2 10 9 Q4 9 1 5 Z" fill="#8BAA91" opacity="0.55"/>
    <path d="M2 11 Q-6 9 -6 16 Q0 15 2 11 Z" fill="#7FA184" opacity="0.55"/>
  </g>

  <!-- tiny standalone flower, center -->
  <g transform="translate(160,140)">
    <circle cx="0" cy="0" r="2.6" fill="#E3B8C0" opacity="0.6"/>
    <circle cx="2.6" cy="1" r="2.6" fill="#E9C7CE" opacity="0.55"/>
    <circle cx="-2.6" cy="1" r="2.6" fill="#E9C7CE" opacity="0.55"/>
    <circle cx="0" cy="2.8" r="2.6" fill="#D89AA5" opacity="0.55"/>
    <path d="M0 3 L1 14" stroke="#7FA184" stroke-width="1" fill="none" opacity="0.6"/>
  </g>

  <!-- rose sprig 3, lower left -->
  <g transform="translate(45,235) rotate(20)">
    <path d="M0 0 L-2 20" stroke="#7FA184" stroke-width="1.3" fill="none" stroke-linecap="round"/>
    <path d="M-1 8 Q-10 5 -10 13 Q-4 12 -1 8 Z" fill="#7FA184" opacity="0.65"/>
    <path d="M-1 14 Q7 12 8 19 Q1 19 -1 14 Z" fill="#8BAA91" opacity="0.55"/>
    <circle cx="0" cy="-2" r="3.4" fill="#D89AA5" opacity="0.75"/>
    <circle cx="3.2" cy="-1" r="3" fill="#E3B8C0" opacity="0.7"/>
    <circle cx="-3.2" cy="-1" r="3" fill="#E3B8C0" opacity="0.7"/>
    <circle cx="0" cy="-4.5" r="3" fill="#E9C7CE" opacity="0.7"/>
    <circle cx="0" cy="-1.5" r="1.6" fill="#C97F8C" opacity="0.85"/>
  </g>

  <!-- leaf sprig, bottom center -->
  <g transform="translate(140,260) rotate(-10)">
    <path d="M0 0 L2 18" stroke="#7FA184" stroke-width="1.2" fill="none" stroke-linecap="round"/>
    <path d="M1 5 Q9 2 10 9 Q4 9 1 5 Z" fill="#8BAA91" opacity="0.55"/>
    <path d="M2 11 Q-6 9 -6 16 Q0 15 2 11 Z" fill="#7FA184" opacity="0.55"/>
  </g>

  <!-- rose sprig 4, lower right -->
  <g transform="translate(255,255) rotate(-25)">
    <path d="M0 0 L4 20" stroke="#7FA184" stroke-width="1.3" fill="none" stroke-linecap="round"/>
    <path d="M2 9 Q11 7 12 15 Q6 14 2 9 Z" fill="#8BAA91" opacity="0.65"/>
    <circle cx="0" cy="-2" r="3.4" fill="#D89AA5" opacity="0.75"/>
    <circle cx="3.2" cy="-1" r="3" fill="#E3B8C0" opacity="0.7"/>
    <circle cx="-3.2" cy="-1" r="3" fill="#E3B8C0" opacity="0.7"/>
    <circle cx="0" cy="-4.5" r="3" fill="#E9C7CE" opacity="0.7"/>
    <circle cx="0" cy="-1.5" r="1.6" fill="#C97F8C" opacity="0.85"/>
  </g>

  <!-- extra leaf sprigs filling remaining gaps -->
  <g transform="translate(200,200) rotate(30)">
    <path d="M0 0 L0 16" stroke="#7FA184" stroke-width="1.1" fill="none" stroke-linecap="round"/>
    <path d="M0 5 Q7 2 8 8 Q3 8 0 5 Z" fill="#7FA184" opacity="0.5"/>
    <path d="M0 10 Q-7 8 -7 14 Q-1 13 0 10 Z" fill="#8BAA91" opacity="0.5"/>
  </g>

  <g transform="translate(105,100) rotate(-30)">
    <path d="M0 0 L0 15" stroke="#7FA184" stroke-width="1.1" fill="none" stroke-linecap="round"/>
    <path d="M0 5 Q6 2 7 7 Q3 7 0 5 Z" fill="#8BAA91" opacity="0.5"/>
  </g>

  <g transform="translate(20,190) rotate(45)">
    <path d="M0 0 L0 14" stroke="#7FA184" stroke-width="1.1" fill="none" stroke-linecap="round"/>
    <path d="M0 5 Q6 2 6 7 Q2 7 0 5 Z" fill="#7FA184" opacity="0.5"/>
  </g>

</svg>
